<?xml version="1.0" encoding="UTF-8" standalone="no"?>
<!-- Created with Inkscape (http://www.inkscape.org/) -->

<svg
   width="48"
   height="48"
   viewBox="0 0 12.7 12.7"
   version="1.1"
   id="svg1"
   xml:space="preserve"
   inkscape:version="1.4 (e7c3feb100, 2024-10-09)"
   sodipodi:docname="Adore.svg"
   xmlns:inkscape="http://www.inkscape.org/namespaces/inkscape"
   xmlns:sodipodi="http://sodipodi.sourceforge.net/DTD/sodipodi-0.dtd"
   xmlns="http://www.w3.org/2000/svg"
   xmlns:svg="http://www.w3.org/2000/svg"><sodipodi:namedview
     id="namedview1"
     pagecolor="#ffffff"
     bordercolor="#000000"
     borderopacity="0.25"
     inkscape:showpageshadow="2"
     inkscape:pageopacity="0.0"
     inkscape:pagecheckerboard="0"
     inkscape:deskcolor="#d1d1d1"
     inkscape:document-units="mm"
     inkscape:zoom="7.9950827"
     inkscape:cx="37.898295"
     inkscape:cy="12.757842"
     inkscape:window-width="1920"
     inkscape:window-height="1008"
     inkscape:window-x="0"
     inkscape:window-y="0"
     inkscape:window-maximized="1"
     inkscape:current-layer="layer1" /><defs
     id="defs1"><inkscape:path-effect
       effect="fillet_chamfer"
       id="path-effect12"
       is_visible="true"
       lpeversion="1"
       nodesatellites_param="F,0,0,1,0,0,0,1 @ F,0,0,1,0,0,0,1 @ F,0,0,1,0,0,0,1 @ F,0,0,1,0,0,0,1"
       radius="0"
       unit="px"
       method="auto"
       mode="F"
       chamfer_steps="1"
       flexible="false"
       use_knot_distance="true"
       apply_no_radius="true"
       apply_with_radius="true"
       only_selected="false"
       hide_knots="false" /><inkscape:perspective
       sodipodi:type="inkscape:persp3d"
       inkscape:vp_x="0 : 19.696583 : 1"
       inkscape:vp_y="0 : 1000 : 0"
       inkscape:vp_z="34.692669 : 19.696583 : 1"
       inkscape:persp3d-origin="17.346334 : 13.131055 : 1"
       id="perspective42" /><linearGradient
       id="linearGradient3412"><stop
         style="stop-color:#ffffff;stop-opacity:0.59836066;"
         offset="0"
         id="stop3414" /><stop
         style="stop-color:#4e9a06;stop-opacity:0;"
         offset="1"
         id="stop3416" /></linearGradient><linearGradient
       id="linearGradient3458"><stop
         style="stop-color:#41a100;stop-opacity:1;"
         offset="0"
         id="stop3460" /><stop
         style="stop-color:#ffffff;stop-opacity:0;"
         offset="1"
         id="stop3462" /></linearGradient></defs><g
     inkscape:label="Слой 1"
     inkscape:groupmode="layer"
     id="layer1"><path
       style="fill:none;stroke:#808080;stroke-width:0.79375;stroke-linecap:butt;stroke-linejoin:round;stroke-dasharray:none"
       d="M 1.5930233,6.3720932 C 2.4100437,2.7594592 6.5645806,1.8926246 10.98673,1.7152767 8.9506697,2.5432359 6.4721562,3.4141618 6.440043,5.0676662 7.0889535,5.730844 9.0626719,5.2687155 10.797488,4.2724858 10.729165,13.811167 0.47498479,13.464313 1.5930233,6.3720932 Z"
       id="path13"
       sodipodi:nodetypes="ccccc" /><path
       style="fill:#ffffff;stroke:none;stroke-width:0.529167;stroke-linecap:butt;stroke-linejoin:round;stroke-dasharray:none"
       d="M 1.9013189,5.5279086 6.4785678,5.0349739 C 5.9343736,4.0624131 8.2824812,2.6640149 10.932583,1.7252708 6.5540668,1.8084958 3.1451849,2.7311058 1.9013189,5.5279086 Z"
       id="path12"
       sodipodi:nodetypes="cccc" /><path
       style="fill:#f9f9f9;stroke:none;stroke-width:0.264583;stroke-linecap:butt;stroke-linejoin:round;stroke-dasharray:none"
       d="M 10.765309,4.3095857 C 5.407403,7.5437055 5.7858399,1.9742429 1.9378366,5.2478551 1.2810757,8.0872804 2.1389188,10.880931 4.4774368,11.57273 7.0402723,11.808582 8.4557941,10.629415 9.5867698,9.099307 10.805903,7.3157275 10.765309,4.3095857 10.765309,4.3095857 Z"
       id="path9"
       sodipodi:nodetypes="ccccc" /><path
       style="display:inline;fill:#f2f2f2;stroke:none;stroke-width:0.264583;stroke-dasharray:none"
       d="M 10.691335,4.3443196 C 9.9541188,8.1697089 3.9042481,8.8748128 1.9915047,5.207689 1.8928589,5.3720987 0.24097617,10.744623 4.7323104,11.495298 10.149556,12.400728 11.0064,4.3443196 10.691335,4.3443196 Z"
       id="path6"
       sodipodi:nodetypes="ccsc" /><path
       d="m 3.1465739,9.7231266 c -0.097695,0.5554524 0.2000444,1.0487174 0.1199413,1.2280424 m 2.897889,-0.838973 c 0.0061,0.562855 0.1503791,1.03227 0.3335599,1.347477"
       style="fill:none;stroke:#f9f9f9;stroke-width:0.79375;stroke-linecap:butt;stroke-dasharray:none"
       id="path1-3"
       sodipodi:nodetypes="cccc" /><path
       id="path11"
       style="fill:none;stroke:#f9f9f9;stroke-width:0.79375;stroke-linecap:round;stroke-dasharray:none"
       d="M 6.6612413,8.1529477 C 6.2917308,8.8419158 6.1596612,9.4982103 6.1657644,10.061065 M 3.8405161,7.7836913 C 3.4162915,8.5693739 3.2475794,9.1510676 3.1465739,9.7231266"
       sodipodi:nodetypes="cccc" /><path
       style="fill:none;stroke:#808080;stroke-width:0.264583;stroke-linecap:round;stroke-dasharray:none"
       d="M 3.8405161,7.7511243 C 2.8746726,9.5869108 3.1129164,10.139125 3.304285,10.970584"
       id="path7"
       sodipodi:nodetypes="cc" /><path
       style="fill:none;stroke:#808080;stroke-width:0.264583;stroke-dasharray:none;stroke-linecap:round"
       d="M 6.6612413,8.1529477 C 5.9222203,9.5308838 6.0182236,10.796243 6.4812076,11.342113"
       id="path8"
       sodipodi:nodetypes="cc" /><path
       style="fill:none;stroke:#cccccc;stroke-width:0.264583;stroke-linecap:butt;stroke-linejoin:round;stroke-dasharray:none"
       d="M 1.5930233,6.3720932 C 2.4100437,2.7594592 6.5645806,1.8926246 10.98673,1.7152767 8.9506697,2.5432359 6.4721562,3.4141618 6.440043,5.0676662 7.0889535,5.730844 9.0626719,5.2687155 10.797488,4.2724858 10.729165,13.811167 0.47498479,13.464313 1.5930233,6.3720932 Z"
       id="path3"
       sodipodi:nodetypes="ccccc" /></g></svg>
